AVATAR 2009 DVDRIP H264 PSP 
English subs are hardcoded for NA,VI parts of the audio

Format profile                   : Base Media / Version 2
Codec ID                         : mp42
File size                        : 519 MiB
Duration                         : 2h 41mn
Overall bit rate                 : 448 Kbps
Encoded date                     : UTC 2010-04-14 14:42:15
Tagged date                      : UTC 2010-04-14 14:43:00
Writing application              : mp4creator 1.6.1d

Video
ID                               : 1
Format                           : AVC
Format/Info                      : Advanced Video Codec
Format profile                   : Baseline@L1.3
Format settings, CABAC           : No
Format settings, ReFrames        : 1 frame
Codec ID                         : avc1
Codec ID/Info                    : Advanced Video Coding
Duration                         : 2h 41mn
Bit rate mode                    : Variable
Bit rate                         : 383 Kbps
Width                            : 480 pixels
Height                           : 272 pixels
Display aspect ratio             : 16:9
Original display aspect ratio    : 16:9
Frame rate mode                  : Constant
Frame rate                       : 24.000 fps
Resolution                       : 24 bits
Colorimetry                      : 4:2:0
Scan type                        : Progressive
Bits/(Pixel*Frame)               : 0.122
Stream size                      : 443 MiB (85%)
Encoded date                     : UTC 2010-04-14 14:42:15
Tagged date                      : UTC 2010-04-14 14:42:55

Audio
ID                               : 2
Format                           : AAC
Format/Info                      : Advanced Audio Codec
Format version                   : Version 4
Format profile                   : LC
Format settings, SBR             : Yes
Format settings, PS              : No
Codec ID                         : 40
Duration                         : 2h 41mn
Bit rate mode                    : Variable
Bit rate                         : 63.8 Kbps
Maximum bit rate                 : 142 Kbps
Channel(s)                       : 2 channels
Channel positions                : L R
Sampling rate                    : 48.0 KHz
Resolution                       : 16 bits
Stream size                      : 73.8 MiB (14%)
Encoded date                     : UTC 2010-04-14 14:42:55
Tagged date                      : UTC 2010-04-14 14:43:00

In AD 2154,[14] humans are engaged in the colonization of Pandora, the lush moon of Polyphemus, one of three gas giants that orbit Alpha Centauri A,[14] 4.3 light years from Earth. Pandora is filled with incredible life forms, and is home to the Na’vi, an indigenous sentient humanoid race who are considered primitive by human standards, yet are more physically capable than them. The Na'vi are tailed, slender creatures with sparkling blue skin, standing three meters tall. They live in harmony with their unspoiled world, which the humans have found to be rich with unobtanium, a valuable mineral that is essential to remedying an economic and energy crisis that is gripping Earth.   
http://www.imdb.com/title/tt0499549/

PLREASE SEED AND ENJOY THANKS

NOTE This is a recode of VISIONS 2.20GB version

screen shots 
http://img341.imageshack.us/img341/5909/avatarh264vicemp4thumbs.jpg

To view H264 files on you,re PC i recomend VLC media player or Media player classic

To burn MP4 H264 files to disc i recomend convert X to dvd click link below thanks
    
http://thepiratebay.org/torrent/5018839/VSO.Convert-X.to.DVD.3.5.3%28vice%29
